<svg width="186" height="200" viewBox="0 0 186 200" fill="none" xmlns="http://www.w3.org/2000/svg">
<rect width="186" height="200" fill="#D8D5D0"/>
<path d="M22.3677 91.5193C18.48 87.6351 14.8756 83.522 11.6716 79.1009C9.03912 75.4641 6.7192 71.6639 5.08792 67.5042C3.98413 64.6797 3.23687 61.7805 3.23687 58.7413C3.23687 52.8963 5.96705 48.5825 11.2565 45.73C13.7913 44.3621 16.5508 43.5965 19.4031 43.1109C24.5753 42.2286 29.7719 42.3173 34.9734 42.7888C40.0968 43.251 45.1469 44.152 50.1531 45.2725C50.4119 45.3332 50.6854 45.3472 50.9541 45.3845C51.0957 45.4452 51.2276 45.5199 51.3741 45.5573C53.6159 46.1315 55.8625 46.6964 58.1092 47.266C59.3644 47.6394 60.6245 48.0129 61.9334 48.4051C62.2264 47.1306 62.5048 45.9167 62.7832 44.7029C63.1446 43.3957 63.5012 42.0932 63.8626 40.786C64.1263 39.8429 64.3901 38.8952 64.6538 37.9522C65.0445 36.827 65.4255 35.6973 65.826 34.5768C66.4414 32.8541 67.0617 31.1361 67.6966 29.418C67.8236 29.0726 67.8431 28.8625 67.4915 28.573C64.8003 26.3695 63.8138 22.91 64.9078 19.7121C65.9969 16.5328 68.9518 14.3292 72.5318 14.0958C73.3377 14.0444 74.1631 14.1472 74.9641 14.2592C75.345 14.3105 75.5306 14.2732 75.7601 13.9557C78.0459 10.7624 80.654 7.86326 84.0582 5.70171C87.4135 3.57285 91.0619 2.55977 95.101 3.18069C98.6175 3.72224 101.563 5.37958 104.19 7.60649C107.497 10.4076 110.027 13.8017 112.205 17.4432C116.044 23.8578 118.71 30.7392 120.899 37.7981C120.938 37.9195 120.938 38.0502 120.957 38.1716C120.776 38.1156 120.596 38.0689 120.42 38.0035C119.287 37.588 118.149 37.1772 117.026 36.7383C116.786 36.645 116.596 36.4396 116.381 36.2855C115.858 34.8102 115.365 33.321 114.808 31.855C112.747 26.4395 110.334 21.1873 106.964 16.3787C104.923 13.4655 102.603 10.7858 99.5113 8.80631C96.0192 6.57007 92.3122 5.96315 88.3757 7.62983C85.6601 8.7783 83.5063 10.6364 81.5966 12.7606C80.6344 13.8297 79.7602 14.9688 78.8566 16.0706C81.8017 18.7784 82.422 22.2705 81.2254 25.1323C79.4574 29.3573 75.9946 30.954 71.3938 30.4778C71.1154 31.2108 70.8419 31.9064 70.5928 32.6067C70.1777 33.7831 69.7821 34.9643 69.3767 36.1408C68.9811 37.3779 68.5659 38.6151 68.1948 39.8616C67.9261 40.7486 67.7161 41.6543 67.4768 42.5507C67.4182 42.6861 67.34 42.8168 67.3059 42.9569C66.8077 44.8897 66.3095 46.8271 65.8309 48.7646C65.6306 49.5769 65.6502 49.5722 66.4218 49.8243C72.3022 51.7198 78.0898 53.872 83.7407 56.309C88.6247 58.4192 93.4893 60.59 98.2659 62.9103C102.857 65.1419 107.355 67.5462 111.848 69.9645C117.958 73.2512 123.819 76.9254 129.621 80.6742C136.664 85.2214 143.429 90.1187 149.9 95.3895C150.652 96.0011 151.404 96.6127 152.235 97.285C153.798 95.8284 155.316 94.4138 156.835 92.9992C157.783 92.1029 158.745 91.2252 159.673 90.3101C160.386 89.6099 161.05 88.8629 161.734 88.1393C161.895 88.0132 162.076 87.9058 162.213 87.7564C162.984 86.9394 163.756 86.1224 164.513 85.2914C168.318 81.0991 171.815 76.7013 174.618 71.8226C176.484 68.578 178.013 65.2073 178.628 61.5238C179.063 58.9327 178.96 56.3837 177.729 53.9794C176.264 51.1129 173.729 49.4228 170.726 48.2837C166.989 46.8691 163.063 46.4676 159.092 46.3929C155.536 46.3229 151.99 46.5143 148.479 47.0512C145.114 47.5648 141.768 48.1717 138.413 48.7366C137.841 48.3304 137.255 47.9382 136.698 47.5134C135.966 46.9625 135.258 46.3883 134.535 45.828C138.789 44.8196 143.077 44.0026 147.424 43.4377C151.312 42.9335 155.219 42.6254 159.141 42.7048C163.737 42.7935 168.264 43.307 172.567 45.0064C175.527 46.1735 178.091 47.8682 179.986 50.3566C181.48 52.3174 182.311 54.5536 182.594 56.9719C183.038 60.8095 182.184 64.4556 180.757 68.0037C178.389 73.8908 174.809 79.0962 170.677 83.9562C168.074 87.0188 165.236 89.9086 162.506 92.8732C160.684 94.5912 158.867 96.3092 157.045 98.032C156.411 98.6015 155.771 99.1664 155.097 99.7687C155.805 100.38 156.479 100.964 157.158 101.547C157.617 101.977 158.081 102.402 158.535 102.836C159.873 104.106 161.207 105.385 162.54 106.655C165.075 109.311 167.61 111.963 170.193 114.666C172.284 113.854 174.491 113.812 176.694 114.629C178.438 115.278 179.815 116.379 180.811 117.887C182.853 120.978 182.667 125.264 179.58 128.214C180.377 130.287 181.231 132.299 181.925 134.358C182.902 137.267 183.268 140.268 182.794 143.303C182.193 147.155 180.215 150.245 176.928 152.561C173.925 154.676 170.481 155.754 166.867 156.384C163.424 156.987 159.937 157.155 156.445 157.043C149.666 156.819 143.009 155.791 136.42 154.293C135.873 154.167 135.326 154.036 134.779 153.91C134.882 153.761 134.96 153.583 135.096 153.471C135.868 152.855 136.64 152.243 137.436 151.655C137.778 151.403 138.169 151.221 138.54 151.006C140.259 151.328 141.963 151.716 143.697 151.954C147.126 152.425 150.559 152.911 154.008 153.214C157.368 153.513 160.743 153.448 164.103 153.042C166.862 152.71 169.553 152.15 172.079 151.016C177.622 148.527 179.585 144.381 179.038 139.12C178.779 136.622 177.969 134.246 176.943 131.94C176.679 131.347 176.391 130.768 176.118 130.194C172.411 131.16 168.787 130.124 166.682 127.36C164.015 123.858 164.308 120.329 166.955 116.8C165.265 115.002 163.561 113.191 161.856 111.375C161.788 111.286 161.729 111.188 161.646 111.109C160.459 109.932 159.277 108.756 158.076 107.589C157.685 107.21 157.251 106.87 156.835 106.51C156.655 106.319 156.489 106.118 156.293 105.94C154.94 104.703 153.588 103.476 152.254 102.262C149.793 104.208 147.414 106.141 144.982 108.009C138.383 113.088 131.56 117.878 124.405 122.215C119.643 125.1 114.793 127.845 109.983 130.656C109.372 131.015 108.762 131.375 108.151 131.734C106.53 132.565 104.908 133.396 103.287 134.227C103.257 134.241 103.252 134.293 103.238 134.325C103.077 134.377 102.906 134.409 102.759 134.489C100.874 135.455 99.0033 136.454 97.1035 137.388C95.7213 138.065 94.3 138.667 92.8885 139.283C89.0301 140.973 85.1717 142.663 81.3084 144.33C79.8041 144.979 78.2754 145.572 76.7565 146.193C74.3731 147.052 71.9897 147.911 69.6014 148.77C68.3901 149.176 67.1838 149.592 65.9627 149.979C65.6062 150.091 65.5867 150.259 65.6648 150.563C66.036 152.024 66.3779 153.495 66.7442 154.956C66.8028 155.194 66.9249 155.413 67.0226 155.647C67.0372 155.815 67.0226 155.988 67.0714 156.142C67.721 158.359 68.3803 160.581 69.0348 162.799C69.616 164.494 70.163 166.202 70.7882 167.878C72.8248 173.327 75.2473 178.597 78.6027 183.439C80.6393 186.38 82.9592 189.088 86.0411 191.1C88.4098 192.645 90.9837 193.546 93.9044 193.247C96.7469 192.958 99.1108 191.669 101.245 189.947C104.312 187.472 106.603 184.396 108.615 181.114C111.712 176.067 113.988 170.675 115.902 165.133C116.156 164.4 116.356 163.644 116.581 162.902C117.392 162.664 118.207 162.43 119.018 162.187C119.712 161.982 120.41 161.767 121.104 161.557C119.795 166.002 118.212 170.357 116.327 174.606C114.549 178.607 112.503 182.472 109.924 186.062C107.839 188.971 105.475 191.637 102.476 193.738C98.9985 196.17 95.1645 197.449 90.8079 196.856C87.5502 196.413 84.7566 194.989 82.2462 193.014C78.6564 190.189 75.9702 186.655 73.6551 182.846C69.7918 176.487 67.1252 169.648 64.9127 162.631C64.815 162.318 64.6587 162.019 64.5317 161.716C64.3901 161.142 64.2533 160.567 64.1019 159.993C63.6379 158.233 63.1642 156.473 62.6953 154.713C62.4169 153.593 62.1385 152.472 61.8553 151.31C60.5708 151.678 59.3497 152.029 58.1336 152.379C56.3363 152.86 54.5438 153.336 52.7465 153.817C52.1311 153.98 51.5206 154.153 50.9052 154.316C49.9626 154.498 49.0151 154.68 48.0725 154.867C46.6072 155.152 45.142 155.465 43.6719 155.717C43.2324 155.791 43.2373 156.058 43.1738 156.342C42.3777 159.778 40.1945 162.019 36.6389 162.832C32.4093 163.798 28.2823 161.697 26.6364 157.818C26.5631 157.65 26.4996 157.477 26.4654 157.393C24.3995 157.206 22.397 157.085 20.4092 156.828C16.8536 156.37 13.4299 155.465 10.3432 153.649C5.18561 150.609 2.80707 146.137 3.0122 140.371C3.14407 136.622 4.32113 133.13 5.9231 129.755C8.53118 124.269 12.0965 119.372 16.0966 114.755C18.0746 112.476 20.1943 110.315 22.2505 108.097C22.3237 108.223 22.4361 108.34 22.4654 108.476C22.6412 109.423 22.8121 110.371 22.9587 111.323C23.027 111.767 23.0368 112.22 23.071 112.668C22.2358 113.578 21.386 114.479 20.5606 115.399C16.8878 119.503 13.5129 123.812 10.8413 128.588C8.7705 132.29 7.10504 136.127 6.86084 140.395C6.75827 142.225 7.02689 143.994 7.80346 145.684C9.04889 148.396 11.2858 150.119 14.016 151.324C16.3652 152.36 18.861 152.934 21.4202 153.238C22.9636 153.42 24.5167 153.513 26.0552 153.644C27.0466 149.531 29.5668 146.959 33.938 146.59C38.2799 146.226 41.2201 148.34 42.9393 152.117C44.2238 151.861 45.4986 151.604 46.7733 151.347C47.6378 151.156 48.512 150.987 49.3667 150.773C50.8027 150.418 52.2288 150.03 53.6598 149.662C53.7966 149.652 53.9333 149.662 54.0652 149.624C55.2667 149.302 56.4681 148.985 57.6647 148.644C58.7978 148.322 59.9212 147.972 61.0299 147.64C61.0299 147.509 61.0396 147.449 61.0299 147.397C60.4877 144.41 59.9016 141.426 59.4181 138.429C58.9639 135.595 58.5878 132.752 58.2411 129.904C57.8943 127.056 57.5719 124.199 57.3424 121.342C57.0835 118.149 56.8882 114.951 56.7563 111.748C56.6147 108.391 56.473 105.035 56.5121 101.678C56.5756 96.2159 56.7368 90.749 56.9419 85.2914C57.0494 82.4623 57.274 79.6378 57.5475 76.818C57.8845 73.3119 58.2215 69.8058 58.7343 66.3184C59.4083 61.7292 60.2533 57.1633 61.0396 52.5881C61.1178 52.1446 60.9957 51.9625 60.5512 51.8412C58.3778 51.2529 56.2093 50.6413 54.0408 50.0344C53.4058 49.871 52.7807 49.6936 52.1409 49.5489C50.3924 49.1474 48.639 48.7646 46.8856 48.3724C46.0749 48.2043 45.2641 48.0223 44.4485 47.8635C40.0333 46.9952 35.5742 46.4116 31.076 46.1875C28.0185 46.0381 24.9514 46.0708 21.9037 46.4583C18.9586 46.8365 16.0819 47.462 13.4348 48.8066C9.27844 50.9214 7.10015 54.1848 7.11969 58.7366C7.13434 61.9486 8.11603 64.9318 9.42496 67.8357C11.5837 72.6069 14.5776 76.888 17.9379 80.945C19.618 82.9712 21.4348 84.8993 23.1882 86.8694C22.9196 88.4147 22.651 89.96 22.3775 91.5053L22.3677 91.5193ZM71.7113 143.975C71.8969 143.933 72.0971 143.919 72.2729 143.854C74.5049 143.004 76.737 142.15 78.9641 141.291C85.3085 138.681 91.5845 135.927 97.7042 132.85C99.062 132.169 100.405 131.454 101.753 130.754C103.462 129.862 105.172 128.975 106.881 128.084C121.944 119.956 136.156 110.674 149.26 99.7687C136.83 89.4698 123.414 80.6415 109.25 72.8217C95.0815 65.0018 80.3609 58.3351 64.7564 53.1997C58.876 84.3437 58.8516 115.376 64.7027 146.543C67.1007 145.689 69.3425 144.886 71.5892 144.087C71.6282 144.05 71.6722 144.017 71.7113 143.98V143.975ZM34.6804 149.9C31.8574 149.9 29.5082 152.145 29.5424 154.811C29.5766 157.538 31.8574 159.68 34.7097 159.676C37.4643 159.671 39.7891 157.481 39.7891 154.9C39.7891 152.117 37.5229 149.9 34.6853 149.904L34.6804 149.9ZM78.2266 22.3592C78.2559 19.6514 75.9946 17.4525 73.1374 17.4151C70.4072 17.3778 68.058 19.5627 68.0287 22.1631C67.9945 24.9689 70.1874 27.1724 73.0495 27.2145C75.8725 27.2565 78.1973 25.0763 78.2266 22.3592ZM168.386 122.28C168.381 125.016 170.648 127.196 173.49 127.196C176.303 127.196 178.604 125.016 178.609 122.341C178.613 119.675 176.333 117.425 173.612 117.421C170.701 117.411 168.391 119.563 168.386 122.28Z" fill="black"/>
<path d="M46.866 48.3864C48.6194 48.7786 50.3728 49.1661 52.1213 49.5629C52.7562 49.7077 53.3862 49.8851 54.0212 50.0485C53.86 50.1091 53.6695 50.1325 53.5474 50.2305C51.6035 51.7805 49.5767 53.2417 47.7549 54.9178C45.7671 56.7478 43.9112 58.7273 42.1089 60.7301C39.4178 63.718 37.2005 67.0327 35.2469 70.5014C33.2249 74.0869 31.5545 77.8218 30.3726 81.7387C29.7279 83.8816 29.1174 86.0431 28.712 88.2373C28.2578 90.7023 27.9501 93.2 27.7645 95.693C27.5789 98.1347 27.5008 100.595 27.5984 103.041C27.6863 105.24 28.0185 107.439 28.3408 109.624C28.8585 113.13 29.7914 116.548 30.988 119.9C32.2187 123.345 33.7279 126.683 35.618 129.844C36.7463 131.734 37.9135 133.62 39.2518 135.376C40.9368 137.584 42.7732 139.685 44.6194 141.772C46.6023 144.013 48.9075 145.941 51.2617 147.813C52.0529 148.443 52.8539 149.055 53.65 149.676C52.2189 150.049 50.7928 150.432 49.3569 150.787C48.4973 151.002 47.6279 151.17 46.7635 151.361C46.6853 151.258 46.6169 151.146 46.5241 151.062C44.3751 149.055 42.1041 147.155 40.0918 145.03C31.8476 136.342 26.3921 126.239 23.6277 114.806C23.4568 114.092 23.2467 113.382 23.0563 112.668C23.0221 112.22 23.0123 111.767 22.9439 111.323C22.7974 110.371 22.6265 109.423 22.4506 108.476C22.4262 108.34 22.309 108.223 22.2357 108.097C22.2699 107.92 22.353 107.743 22.3334 107.57C21.7034 102.383 21.7327 97.201 22.353 92.0142C22.3725 91.8508 22.3676 91.6781 22.3725 91.5147C22.6411 89.9694 22.9097 88.4241 23.1833 86.8788C23.2614 86.552 23.3395 86.2252 23.4128 85.8984C25.2639 77.6023 28.6045 69.9039 33.4837 62.817C37.22 57.3874 41.7085 52.5928 46.8758 48.3771L46.866 48.3864Z" fill="#75679C"/>
<path d="M116.381 36.2901C116.595 36.4442 116.786 36.6496 117.025 36.743C118.149 37.1818 119.287 37.5926 120.42 38.0081C120.596 38.0735 120.776 38.1202 120.957 38.1762H120.932C120.972 38.2182 121.006 38.2602 121.045 38.3023C124.703 39.8896 128.224 41.715 131.555 43.8672C132.557 44.5115 133.543 45.1744 134.535 45.8327C135.253 46.3976 135.966 46.9671 136.698 47.518C137.26 47.9382 137.841 48.335 138.413 48.7412C138.535 48.8766 138.637 49.0353 138.774 49.152C142.11 51.9532 145.162 55.0204 147.897 58.3678C153.949 65.7674 158.188 74.0261 160.635 83.1158C161.079 84.7732 161.368 86.4679 161.729 88.1439C161.045 88.8675 160.376 89.6145 159.668 90.3148C158.74 91.2298 157.778 92.1122 156.83 93.0039C156.63 91.7387 156.444 90.4688 156.22 89.2036C155.267 83.7554 153.524 78.536 151.072 73.5406C148.938 69.1895 146.305 65.1325 143.165 61.365C140.41 58.055 137.372 55.0204 133.973 52.3266C129.621 48.8766 124.942 45.898 119.731 43.7411C117.641 42.8775 115.56 41.9811 113.416 41.2575C108.927 39.7402 104.302 38.7504 99.555 38.2883C96.4146 37.9848 93.279 37.8027 90.1141 37.9428C87.2716 38.0642 84.4535 38.3023 81.6452 38.7458C77.6403 39.3807 73.7281 40.3518 69.9284 41.7197C69.1127 42.0138 68.2873 42.2799 67.4619 42.56C67.7012 41.6636 67.9112 40.7626 68.1799 39.8709C68.5559 38.6244 68.9662 37.3919 69.3618 36.1501C69.4351 36.1314 69.5132 36.1127 69.5865 36.0894C75.3008 34.2313 81.1666 33.0968 87.1935 32.672C94.2754 32.1771 101.279 32.6626 108.18 34.2126C110.774 34.7962 113.308 35.6272 115.868 36.3321C116.019 36.3742 116.2 36.3041 116.371 36.2854L116.381 36.2901Z" fill="#75679C"/>
<path d="M138.53 151.011C138.159 151.226 137.768 151.408 137.426 151.66C136.63 152.248 135.854 152.86 135.087 153.476C134.95 153.588 134.877 153.765 134.769 153.915C134.579 153.985 134.354 154.013 134.193 154.125C130.247 156.884 126.061 159.246 121.612 161.184C121.416 161.268 121.26 161.436 121.084 161.566C120.391 161.777 119.697 161.991 118.999 162.197C118.188 162.44 117.372 162.673 116.562 162.911C115.331 162.92 114.408 162.285 113.914 161.076C111.663 155.544 109.402 150.012 107.165 144.47C106.369 142.495 105.636 140.502 104.864 138.518C104.322 137.122 103.77 135.731 103.223 134.339C103.238 134.307 103.248 134.255 103.272 134.241C104.894 133.41 106.515 132.579 108.137 131.748C108.19 131.842 108.259 131.935 108.298 132.033C110.027 136.305 111.756 140.577 113.475 144.853C113.817 145.703 114.09 146.58 114.427 147.43C115.189 149.326 115.971 151.212 116.747 153.102C117.236 154.293 117.719 155.483 118.242 156.767C118.965 156.464 119.658 156.221 120.303 155.89C124.259 153.877 128.22 151.861 131.712 149.134C133.793 147.509 135.868 145.866 137.793 144.078C139.551 142.449 141.148 140.651 142.725 138.859C145.612 135.581 147.981 131.968 150.042 128.172C152.005 124.554 153.549 120.773 154.726 116.856C155.741 113.471 156.455 110.03 156.816 106.524C157.231 106.884 157.666 107.22 158.057 107.603C159.258 108.765 160.44 109.946 161.627 111.123C161.705 111.202 161.768 111.3 161.837 111.389C161.602 112.481 161.383 113.583 161.124 114.671C158.809 124.433 154.437 133.27 148.034 141.193C145.285 144.596 142.203 147.71 138.828 150.558C138.691 150.675 138.618 150.861 138.515 151.016L138.53 151.011Z" fill="#75679C"/>
<path d="M58.1092 47.266C55.8626 46.6964 53.6208 46.1315 51.3741 45.5573C51.2276 45.5199 51.0957 45.4406 50.9541 45.3845C52.5463 44.3575 54.075 43.223 55.7454 42.322C58.4658 40.8514 61.279 39.5348 64.0531 38.1576C64.2387 38.0642 64.4536 38.0222 64.6539 37.9568C64.3901 38.8999 64.1264 39.8429 63.8626 40.7907C63.5012 42.0932 63.1447 43.4004 62.7833 44.7076C61.2253 45.5619 59.6672 46.4163 58.1044 47.2753L58.1092 47.266Z" fill="#75679C"/>
<path d="M62.6807 154.718C63.1496 156.478 63.6185 158.238 64.0873 159.998C64.2387 160.572 64.3755 161.146 64.5171 161.721C62.8956 160.997 61.2546 160.315 59.6575 159.55C56.7808 158.163 54.0555 156.529 51.4376 154.736C51.2472 154.606 51.0713 154.461 50.8906 154.321C51.506 154.153 52.1165 153.985 52.7319 153.821C54.5244 153.34 56.3217 152.864 58.119 152.383C58.1483 152.449 58.163 152.542 58.2167 152.57C59.5989 153.331 60.986 154.087 62.3779 154.834C62.4365 154.867 62.583 154.76 62.6856 154.718H62.6807Z" fill="#75679C"/>
<path d="M162.535 106.655C161.202 105.38 159.863 104.106 158.53 102.836C158.076 102.402 157.612 101.977 157.153 101.547C157.187 100.474 157.226 99.4045 157.245 98.3307C157.245 98.2327 157.114 98.13 157.04 98.0273C158.862 96.3092 160.679 94.5912 162.501 92.8685C162.974 97.4624 162.974 102.056 162.535 106.65V106.655Z" fill="#75679C"/>
<path d="M121.051 38.3031C121.011 38.2608 120.977 38.2185 120.938 38.1762C120.977 38.2185 121.011 38.2608 121.051 38.3031Z" fill="black"/>
<path d="M71.5892 144.083C69.3474 144.881 67.1056 145.684 64.7027 146.538C58.8565 115.371 58.876 84.3391 64.7564 53.1951C80.361 58.3305 95.0815 64.9972 109.25 72.8171C123.414 80.6369 136.83 89.4652 149.26 99.764C136.151 110.67 121.939 119.951 106.881 128.079C106.774 127.939 106.627 127.817 106.559 127.659C106.286 127.019 106.036 126.375 105.778 125.731C105.318 124.587 104.864 123.438 104.42 122.323C104.474 122.253 104.493 122.21 104.522 122.192C104.859 122.005 105.196 121.823 105.538 121.636C109.9 119.246 113.25 115.913 115.599 111.678C117.934 107.472 118.965 102.985 118.618 98.2094C118.461 96.0759 118.041 94.0077 117.363 91.9815C116.596 89.6939 115.463 87.5744 114.041 85.5949C112.425 83.3493 110.491 81.4072 108.205 79.7685C105.973 78.1672 103.541 76.9394 100.908 76.0617C98.5736 75.2867 96.1706 74.8479 93.714 74.7312C90.7542 74.5911 87.8482 74.9179 84.991 75.7116C81.1033 76.7947 77.6698 78.6528 74.6808 81.2438C72.5709 83.0739 70.8175 85.1747 69.4207 87.5604C67.4524 90.9218 66.3486 94.5165 66.1044 98.3448C65.9725 100.427 66.1044 102.504 66.5244 104.573C67.4426 109.157 69.5428 113.172 72.7614 116.646C74.7834 118.826 77.1424 120.623 79.8579 121.972C80.2486 122.168 80.3219 122.379 80.1607 122.78C79.0667 125.469 77.9971 128.168 76.9128 130.857C75.516 134.335 74.1045 137.808 72.7076 141.291C72.356 142.173 72.0483 143.074 71.7211 143.966C71.682 144.003 71.638 144.036 71.599 144.073L71.5892 144.083Z" fill="#4E3E7F"/>
<path d="M53.65 149.68C52.8539 149.059 52.0481 148.443 51.2617 147.818C48.9076 145.941 46.6024 144.013 44.6194 141.776C42.7733 139.69 40.9369 137.584 39.2519 135.381C37.9136 133.625 36.7463 131.739 35.6181 129.848C33.7329 126.683 32.2237 123.35 30.988 119.904C29.7915 116.557 28.8586 113.135 28.3409 109.629C28.0185 107.444 27.6864 105.25 27.5985 103.046C27.5008 100.6 27.579 98.1394 27.7646 95.6977C27.955 93.2 28.2579 90.7023 28.7121 88.242C29.1175 86.0525 29.7231 83.8862 30.3727 81.7434C31.5546 77.8264 33.2249 74.0916 35.2469 70.5061C37.2006 67.0374 39.4179 63.7274 42.109 60.7348C43.9112 58.732 45.7672 56.7525 47.755 54.9225C49.5719 53.2464 51.6036 51.7852 53.5475 50.2352C53.6745 50.1372 53.8601 50.1138 54.0212 50.0531C56.1897 50.66 58.3583 51.2716 60.5317 51.8599C60.9761 51.9813 61.0982 52.1587 61.0201 52.6068C60.2289 57.182 59.3888 61.7479 58.7148 66.3371C58.202 69.8198 57.865 73.3306 57.528 76.8367C57.2593 79.6565 57.0298 82.481 56.9224 85.3102C56.7172 90.7724 56.556 96.2346 56.4926 101.697C56.4535 105.054 56.5951 108.41 56.7368 111.767C56.8735 114.97 57.064 118.168 57.3228 121.361C57.5573 124.218 57.8747 127.075 58.2215 129.923C58.5683 132.771 58.9443 135.614 59.3986 138.448C59.8821 141.445 60.4682 144.428 61.0103 147.416C61.0201 147.472 61.0103 147.528 61.0103 147.659C59.9016 147.99 58.7783 148.34 57.6452 148.663C56.4486 149.003 55.2471 149.321 54.0456 149.643C53.9187 149.676 53.777 149.666 53.6403 149.68H53.65Z" fill="#4E3E7F"/>
<path d="M67.4717 42.5553C68.2922 42.2752 69.1225 42.009 69.9382 41.7149C73.738 40.347 77.6501 39.376 81.655 38.741C84.4585 38.2975 87.2814 38.0594 90.124 37.9381C93.2888 37.8027 96.4244 37.9801 99.5648 38.2835C104.312 38.7457 108.937 39.7355 113.426 41.2527C115.57 41.9764 117.65 42.8727 119.741 43.7364C124.952 45.8933 129.631 48.8718 133.983 52.3219C137.382 55.0157 140.42 58.0502 143.175 61.3602C146.31 65.1278 148.943 69.1848 151.082 73.5359C153.534 78.5312 155.277 83.7507 156.23 89.1989C156.449 90.4641 156.635 91.7339 156.84 92.9991C155.321 94.4137 153.802 95.8329 152.239 97.2849C151.414 96.6126 150.657 96.001 149.905 95.3894C143.433 90.1186 136.669 85.2213 129.626 80.6741C123.824 76.9253 117.963 73.2511 111.853 69.9644C107.365 67.5461 102.866 65.1418 98.2705 62.9102C93.4939 60.5899 88.6294 58.4191 83.7454 56.3089C78.0897 53.8672 72.3069 51.7197 66.4265 49.8242C65.6549 49.5768 65.6304 49.5768 65.8356 48.7645C66.3142 46.827 66.8124 44.8895 67.3105 42.9568C67.3447 42.8167 67.4229 42.686 67.4815 42.5506L67.4717 42.5553Z" fill="#4E3E7F"/>
<path d="M156.831 106.524C156.469 110.03 155.756 113.476 154.74 116.856C153.563 120.773 152.025 124.554 150.056 128.172C147.995 131.972 145.627 135.586 142.74 138.859C141.158 140.651 139.561 142.449 137.807 144.078C135.883 145.866 133.807 147.509 131.727 149.134C128.239 151.861 124.278 153.877 120.317 155.889C119.673 156.216 118.979 156.459 118.256 156.767C117.734 155.488 117.245 154.298 116.762 153.102C115.99 151.212 115.204 149.325 114.442 147.43C114.1 146.58 113.831 145.703 113.489 144.853C111.77 140.577 110.041 136.305 108.312 132.033C108.273 131.935 108.205 131.842 108.151 131.748C108.762 131.389 109.372 131.029 109.983 130.67C114.793 127.859 119.648 125.114 124.405 122.229C131.56 117.892 138.383 113.102 144.982 108.023C147.409 106.151 149.793 104.222 152.254 102.276C153.588 103.489 154.945 104.717 156.293 105.954C156.489 106.132 156.655 106.333 156.835 106.524H156.831Z" fill="#4E3E7F"/>
<path d="M101.753 130.754C100.6 127.883 99.4427 125.016 98.2999 122.145C97.5526 120.278 98.1729 118.966 100.097 118.196C105.621 115.992 109.514 112.234 111.677 106.898C115.555 97.3177 110.945 86.3792 101.221 82.0095C90.2949 77.0981 77.4059 82.0421 73.0591 92.8032C69.0395 102.757 74.1092 114.036 84.434 118.116C84.8297 118.27 85.235 118.429 85.5818 118.662C86.6856 119.405 87.0275 120.623 86.5098 121.954C85.7576 123.872 84.9859 125.782 84.2143 127.696C82.4755 132.024 80.7319 136.356 79.003 140.689C78.9297 140.866 78.9786 141.09 78.9737 141.291C76.7417 142.145 74.5145 143.004 72.2825 143.854C72.1067 143.919 71.9064 143.938 71.7209 143.975C72.0481 143.084 72.3509 142.183 72.7074 141.3C74.0994 137.818 75.5109 134.344 76.9126 130.866C77.9969 128.172 79.0616 125.474 80.1605 122.789C80.3217 122.388 80.2484 122.178 79.8577 121.982C77.1422 120.633 74.7832 118.835 72.7612 116.655C69.5426 113.177 67.4424 109.162 66.5242 104.582C66.1091 102.514 65.9723 100.436 66.1042 98.3541C66.3484 94.5259 67.4522 90.9311 69.4205 87.5697C70.8173 85.1841 72.5756 83.0832 74.6806 81.2531C77.6696 78.6621 81.1031 76.804 84.9908 75.7209C87.8431 74.9272 90.754 74.6004 93.7137 74.7405C96.1704 74.8572 98.5783 75.2961 100.908 76.071C103.54 76.9487 105.973 78.1766 108.205 79.7779C110.486 81.4119 112.425 83.3587 114.041 85.6043C115.467 87.5837 116.596 89.7033 117.362 91.9909C118.041 94.017 118.461 96.0852 118.618 98.2187C118.964 102.995 117.934 107.481 115.599 111.688C113.25 115.917 109.899 119.255 105.538 121.646C105.201 121.832 104.859 122.014 104.522 122.201C104.493 122.22 104.473 122.257 104.42 122.332C104.864 123.452 105.323 124.596 105.777 125.74C106.036 126.384 106.285 127.028 106.559 127.668C106.627 127.822 106.774 127.948 106.881 128.088C105.172 128.98 103.462 129.867 101.753 130.759V130.754Z" fill="#75679C"/>
<path d="M76.7418 146.207C75.9945 148.102 75.2473 150.002 74.4902 151.898C73.2888 154.909 72.0726 157.911 70.876 160.927C70.5244 161.809 69.9774 162.486 69.025 162.813C68.3705 160.595 67.7112 158.378 67.0616 156.156C67.0176 155.997 67.0274 155.824 67.0128 155.661C67.5988 154.148 68.1996 152.636 68.7759 151.118C69.0689 150.348 69.3229 149.564 69.5915 148.784C71.975 147.925 74.3584 147.066 76.7467 146.207H76.7418Z" fill="#75679C"/>
<path d="M69.5915 148.784C69.318 149.564 69.064 150.348 68.7759 151.118C68.1995 152.636 67.6037 154.148 67.0127 155.661C66.9199 155.432 66.7978 155.208 66.7343 154.97C66.368 153.509 66.0261 152.038 65.6549 150.577C65.5768 150.273 65.5963 150.105 65.9529 149.993C67.169 149.606 68.3803 149.19 69.5915 148.784Z" fill="#4E3E7F"/>
<path d="M58.1091 47.2659C59.6671 46.4116 61.2252 45.5572 62.7881 44.6982C62.5097 45.912 62.2313 47.1259 61.9382 48.4004C60.6293 48.0129 59.3692 47.6347 58.114 47.2613L58.1091 47.2659Z" fill="#4E3E7F"/>
<path d="M62.6807 154.718C62.5781 154.76 62.4316 154.867 62.373 154.834C60.981 154.092 59.5939 153.331 58.2118 152.57C58.158 152.542 58.1483 152.444 58.1141 152.383C59.3351 152.033 60.5561 151.683 61.8357 151.314C62.1239 152.472 62.3974 153.593 62.6758 154.718H62.6807Z" fill="#4E3E7F"/>
<path d="M157.041 98.0318C157.115 98.1345 157.247 98.2326 157.247 98.3353C157.227 99.4091 157.188 100.478 157.154 101.552C156.479 100.968 155.8 100.385 155.092 99.7732C155.766 99.171 156.406 98.6014 157.041 98.0365V98.0318Z" fill="#4E3E7F"/>
<path d="M71.5892 144.083C71.6285 144.046 71.6728 144.013 71.7122 143.975C71.6728 144.013 71.6285 144.046 71.5892 144.083Z" fill="#75679C"/>
</svg>
