<svg width="56" height="60" viewBox="0 0 56 60" fill="none" xmlns="http://www.w3.org/2000/svg">
<rect width="56" height="60" fill="#D8D5D0"/>
<path d="M7.59511 27.552C6.472 26.4307 5.43072 25.2435 4.50514 23.9673C3.74464 22.9175 3.07443 21.8205 2.60318 20.6198C2.2843 19.8045 2.06843 18.9676 2.06843 18.0903C2.06843 16.403 2.85715 15.1578 4.38521 14.3344C5.11749 13.9396 5.91467 13.7186 6.73867 13.5784C8.23286 13.3237 9.73411 13.3493 11.2368 13.4854C12.7169 13.6188 14.1758 13.8789 15.622 14.2024C15.6968 14.2199 15.7758 14.2239 15.8534 14.2347C15.8943 14.2522 15.9324 14.2738 15.9747 14.2846C16.6224 14.4503 17.2714 14.6134 17.9204 14.7778C18.283 14.8856 18.6471 14.9934 19.0252 15.1066C19.1099 14.7387 19.1903 14.3883 19.2707 14.038C19.3751 13.6606 19.4781 13.2846 19.5825 12.9073C19.6587 12.6351 19.7349 12.3615 19.8111 12.0893C19.924 11.7645 20.034 11.4384 20.1497 11.115C20.3275 10.6177 20.5067 10.1218 20.6901 9.62582C20.7268 9.5261 20.7325 9.46546 20.6309 9.3819C19.8534 8.74582 19.5684 7.74723 19.8845 6.82411C20.1991 5.90637 21.0527 5.27029 22.087 5.20291C22.3198 5.18809 22.5582 5.21773 22.7896 5.25008C22.8997 5.2649 22.9533 5.25412 23.0196 5.16248C23.6799 4.2407 24.4334 3.40383 25.4168 2.77988C26.3861 2.16536 27.4401 1.87292 28.607 2.05216C29.6228 2.20848 30.4736 2.68689 31.2327 3.32971C32.1879 4.13828 32.9188 5.11801 33.5481 6.16916C34.6571 8.0208 35.4275 10.0072 36.0596 12.0448C36.0709 12.0799 36.0709 12.1176 36.0765 12.1526C36.0243 12.1365 35.9721 12.123 35.9213 12.1041C35.594 11.9842 35.2652 11.8656 34.9407 11.7389C34.8716 11.712 34.8165 11.6527 34.7545 11.6082C34.6035 11.1823 34.461 10.7524 34.3001 10.3293C33.7047 8.76604 33.0077 7.24996 32.0341 5.8619C31.4444 5.02098 30.7742 4.24744 29.881 3.67605C28.8722 3.03053 27.8013 2.85534 26.6641 3.33645C25.8796 3.66796 25.2574 4.20432 24.7057 4.81749C24.4277 5.1261 24.1752 5.45492 23.9141 5.77296C24.7649 6.55458 24.9441 7.56261 24.5984 8.3887C24.0877 9.6083 23.0873 10.0692 21.7582 9.93174C21.6778 10.1433 21.5988 10.3441 21.5268 10.5463C21.4069 10.8859 21.2926 11.2268 21.1755 11.5664C21.0612 11.9235 20.9413 12.2807 20.834 12.6405C20.7564 12.8965 20.6958 13.158 20.6266 13.4167C20.6097 13.4558 20.5871 13.4935 20.5772 13.5339C20.4333 14.0919 20.2894 14.6511 20.1511 15.2104C20.0933 15.4449 20.0989 15.4435 20.3219 15.5163C22.0206 16.0634 23.6926 16.6847 25.3251 17.3882C26.736 17.9973 28.1413 18.6239 29.5212 19.2937C30.8475 19.9379 32.147 20.6319 33.4451 21.33C35.2102 22.2787 36.9033 23.3393 38.5795 24.4214C40.6141 25.734 42.5683 27.1477 44.4378 28.6691C44.6551 28.8457 44.8724 29.0222 45.1122 29.2163C45.5637 28.7958 46.0025 28.3875 46.4413 27.9792C46.7151 27.7204 46.993 27.4671 47.2611 27.2029C47.4671 27.0008 47.659 26.7852 47.8565 26.5763C47.9031 26.5399 47.9553 26.5089 47.9948 26.4658C48.2177 26.2299 48.4407 25.9941 48.6594 25.7542C49.7585 24.5441 50.7687 23.2746 51.5786 21.8663C52.1176 20.9297 52.5592 19.9567 52.737 18.8935C52.8626 18.1455 52.8329 17.4097 52.4774 16.7157C52.0541 15.8882 51.3218 15.4004 50.4541 15.0716C49.3747 14.6633 48.2403 14.5474 47.0932 14.5258C46.066 14.5056 45.0417 14.5608 44.0272 14.7158C43.0551 14.8641 42.0886 15.0392 41.1192 15.2023C40.9542 15.0851 40.7848 14.9719 40.624 14.8492C40.4124 14.6902 40.2078 14.5245 39.999 14.3627C41.2279 14.0716 42.4667 13.8358 43.7224 13.6727C44.8456 13.5272 45.9743 13.4383 47.1073 13.4612C48.435 13.4868 49.743 13.635 50.986 14.1256C51.841 14.4625 52.5818 14.9516 53.1292 15.6699C53.561 16.2359 53.8008 16.8815 53.8827 17.5795C54.0111 18.6873 53.7642 19.7398 53.3522 20.764C52.6679 22.4633 51.6336 23.9659 50.44 25.3688C49.6879 26.2529 48.8682 27.087 48.0794 27.9428C47.5532 28.4387 47.0283 28.9346 46.502 29.4319C46.3186 29.5963 46.1338 29.7594 45.939 29.9332C46.1436 30.1098 46.3383 30.2782 46.5345 30.4467C46.6671 30.5706 46.8011 30.6933 46.9324 30.8186C47.3189 31.1852 47.7041 31.5544 48.0893 31.921C48.8216 32.6878 49.5539 33.4532 50.3003 34.2335C50.9042 33.999 51.5419 33.9869 52.1783 34.2227C52.682 34.41 53.0799 34.7281 53.3677 35.1634C53.9575 36.0555 53.9038 37.2926 53.0121 38.1443C53.2421 38.7427 53.489 39.3235 53.6894 39.9178C53.9716 40.7574 54.0774 41.6239 53.9405 42.4998C53.767 43.6116 53.1955 44.5038 52.246 45.1722C51.3782 45.7827 50.3835 46.094 49.3394 46.2759C48.3447 46.4497 47.3373 46.4983 46.3285 46.4659C44.3701 46.4012 42.4469 46.1048 40.5436 45.6722C40.3855 45.6358 40.2275 45.598 40.0695 45.5617C40.0991 45.5185 40.1217 45.4673 40.1612 45.435C40.3841 45.2571 40.6071 45.0806 40.8371 44.9108C40.9358 44.838 41.0487 44.7854 41.1559 44.7234C41.6526 44.8164 42.145 44.9283 42.6459 44.997C43.6364 45.1331 44.6283 45.2733 45.6244 45.3609C46.5951 45.4471 47.5701 45.4282 48.5408 45.311C49.338 45.2153 50.1154 45.0536 50.8449 44.7261C52.4463 44.0078 53.0135 42.8111 52.8555 41.2924C52.7807 40.5714 52.5465 39.8854 52.2502 39.2197C52.174 39.0486 52.0908 38.8815 52.0118 38.7157C50.9409 38.9947 49.8939 38.6955 49.2858 37.8977C48.5154 36.887 48.6001 35.8682 49.3648 34.8494C48.8766 34.3305 48.3842 33.8077 47.8918 33.2834C47.872 33.2578 47.8551 33.2295 47.8311 33.2066C47.4883 32.867 47.1468 32.5274 46.7997 32.1905C46.6868 32.0813 46.5613 31.983 46.4413 31.8792C46.3891 31.8239 46.3412 31.766 46.2847 31.7148C45.8939 31.3577 45.5031 31.0032 45.1179 30.6529C44.4068 31.2148 43.7196 31.7727 43.017 32.3118C41.1108 33.778 39.1397 35.1607 37.0726 36.4126C35.697 37.2454 34.2959 38.0379 32.9061 38.8491C32.7297 38.9529 32.5534 39.0567 32.377 39.1604C31.9086 39.4003 31.4401 39.6402 30.9717 39.8801C30.9632 39.8841 30.9618 39.8989 30.9576 39.9084C30.911 39.9232 30.8616 39.9326 30.8193 39.9555C30.2747 40.2345 29.7343 40.5229 29.1854 40.7924C28.7861 40.9878 28.3756 41.1617 27.9678 41.3395C26.8531 41.8274 25.7385 42.3152 24.6224 42.7963C24.1879 42.9836 23.7462 43.1548 23.3074 43.334C22.6189 43.582 21.9303 43.83 21.2404 44.0779C20.8905 44.1952 20.542 44.3151 20.1892 44.427C20.0862 44.4593 20.0806 44.5078 20.1032 44.5954C20.2104 45.0172 20.3092 45.4417 20.415 45.8635C20.4319 45.9323 20.4672 45.9956 20.4954 46.063C20.4996 46.1115 20.4954 46.1614 20.5095 46.2058C20.6972 46.8459 20.8877 47.4874 21.0767 48.1275C21.2446 48.6167 21.4027 49.11 21.5833 49.5938C22.1716 51.1664 22.8714 52.6879 23.8408 54.0854C24.4291 54.9344 25.0993 55.716 25.9896 56.2969C26.674 56.7429 27.4175 57.003 28.2613 56.9168C29.0824 56.8332 29.7653 56.4613 30.3819 55.964C31.268 55.2497 31.9297 54.3617 32.511 53.4143C33.4056 51.9575 34.0631 50.401 34.6162 48.8014C34.6896 48.5898 34.7474 48.3715 34.8123 48.1572C35.0465 48.0885 35.2821 48.0211 35.5164 47.951C35.7167 47.8917 35.9185 47.8297 36.1188 47.7691C35.7407 49.052 35.2836 50.3093 34.7389 51.5357C34.2253 52.6906 33.6342 53.8064 32.8892 54.8428C32.2867 55.6823 31.6038 56.4518 30.7375 57.0583C29.7329 57.7604 28.6253 58.1296 27.3667 57.9585C26.4256 57.8305 25.6186 57.4194 24.8933 56.8494C23.8563 56.0341 23.0803 55.0139 22.4115 53.9143C21.2954 52.0788 20.525 50.1045 19.8859 48.079C19.8577 47.9887 19.8125 47.9025 19.7758 47.8149C19.7349 47.6491 19.6954 47.4834 19.6517 47.3176C19.5176 46.8096 19.3808 46.3015 19.2453 45.7934C19.1649 45.47 19.0845 45.1466 19.0026 44.811C18.6315 44.9175 18.2788 45.0186 17.9275 45.1196C17.4083 45.2584 16.8904 45.3959 16.3712 45.5347C16.1934 45.5819 16.0171 45.6317 15.8393 45.6789C15.567 45.7315 15.2932 45.784 15.0209 45.8379C14.5976 45.9201 14.1744 46.0104 13.7497 46.0832C13.6227 46.1048 13.6241 46.1816 13.6058 46.2638C13.3758 47.2556 12.7451 47.9025 11.7179 48.137C10.496 48.4159 9.30377 47.8095 8.82828 46.6896C8.80712 46.6411 8.78877 46.5912 8.7789 46.567C8.18207 46.5131 7.60358 46.478 7.02932 46.4039C6.00215 46.2719 5.01308 46.0104 4.12136 45.4862C2.6314 44.6089 1.94427 43.3179 2.00353 41.6535C2.04162 40.5714 2.38166 39.5634 2.84445 38.589C3.5979 37.0056 4.62789 35.5919 5.78346 34.2591C6.35489 33.6015 6.96724 32.9775 7.56125 32.3374C7.58241 32.3738 7.61487 32.4075 7.62333 32.4465C7.67413 32.7201 7.72351 32.9937 7.76584 33.2686C7.78559 33.3966 7.78841 33.5273 7.79829 33.6567C7.55702 33.9195 7.31151 34.1796 7.07306 34.4451C6.01203 35.6296 5.03706 36.8735 4.26528 38.2521C3.66703 39.3208 3.1859 40.4285 3.11535 41.6603C3.08572 42.1885 3.16332 42.6993 3.38767 43.1871C3.74746 43.9701 4.39367 44.4674 5.18239 44.8151C5.86106 45.1142 6.58205 45.28 7.32139 45.3676C7.76725 45.4202 8.21593 45.4471 8.66038 45.4848C8.9468 44.2976 9.67485 43.555 10.9376 43.4486C12.192 43.3435 13.0414 43.9539 13.538 45.0442C13.9091 44.97 14.2774 44.8959 14.6456 44.8218C14.8954 44.7666 15.1479 44.718 15.3948 44.6561C15.8097 44.5536 16.2217 44.4418 16.6351 44.3353C16.6746 44.3326 16.7141 44.3353 16.7522 44.3245C17.0993 44.2315 17.4464 44.1399 17.792 44.0415C18.1194 43.9485 18.4439 43.8475 18.7642 43.7518C18.7642 43.7141 18.767 43.6965 18.7642 43.6817C18.6076 42.8192 18.4383 41.9581 18.2986 41.0929C18.1673 40.2749 18.0587 39.4542 17.9585 38.6322C17.8584 37.8101 17.7652 36.9854 17.6989 36.1606C17.6241 35.2388 17.5677 34.3157 17.5296 33.3912C17.4887 32.4223 17.4478 31.4533 17.4591 30.4844C17.4774 28.9077 17.524 27.3296 17.5832 25.7542C17.6143 24.9376 17.6792 24.1223 17.7582 23.3083C17.8555 22.2962 17.9529 21.2841 18.101 20.2775C18.2957 18.9528 18.5398 17.6348 18.767 16.3141C18.7896 16.1861 18.7543 16.1335 18.6259 16.0985C17.998 15.9287 17.3716 15.7521 16.7451 15.5769C16.5617 15.5298 16.3811 15.4786 16.1963 15.4368C15.6911 15.3209 15.1846 15.2104 14.6781 15.0972C14.4439 15.0487 14.2096 14.9961 13.974 14.9503C12.6985 14.6996 11.4103 14.5312 10.1108 14.4665C9.22758 14.4234 8.3415 14.4328 7.46107 14.5447C6.61027 14.6538 5.77922 14.8344 5.01449 15.2225C3.81377 15.833 3.18449 16.775 3.19013 18.0889C3.19437 19.0161 3.47797 19.8772 3.8561 20.7155C4.47974 22.0927 5.34465 23.3285 6.31538 24.4996C6.80075 25.0845 7.32562 25.641 7.83215 26.2097C7.75455 26.6558 7.67695 27.1019 7.59794 27.5479L7.59511 27.552ZM21.8499 42.6939C21.9035 42.6818 21.9614 42.6777 22.0122 42.6589C22.657 42.4136 23.3018 42.167 23.9452 41.919C25.778 41.1657 27.5911 40.3706 29.359 39.4825C29.7512 39.2858 30.1392 39.0796 30.5287 38.8774C31.0225 38.62 31.5163 38.364 32.0102 38.1066C36.3615 35.7604 40.4674 33.0813 44.253 29.9332C40.6621 26.9604 36.7862 24.412 32.6945 22.1547C28.6013 19.8974 24.3487 17.973 19.8407 16.4906C18.142 25.4807 18.1349 34.4383 19.8252 43.4351C20.518 43.1885 21.1656 42.9567 21.8146 42.7262C21.8259 42.7155 21.8386 42.706 21.8499 42.6953V42.6939ZM11.1521 44.404C10.3366 44.404 9.65792 45.0523 9.6678 45.8218C9.67767 46.6088 10.3366 47.2273 11.1606 47.226C11.9564 47.2246 12.628 46.5926 12.628 45.8474C12.628 45.0442 11.9733 44.404 11.1535 44.4054L11.1521 44.404ZM23.7321 7.58821C23.7406 6.80659 23.0873 6.17185 22.2619 6.16107C21.4732 6.15029 20.7945 6.78098 20.7861 7.53161C20.7762 8.34153 21.4097 8.97761 22.2365 8.98974C23.052 9.00187 23.7237 8.37253 23.7321 7.58821ZM49.7782 36.4315C49.7768 37.2212 50.4315 37.8505 51.2527 37.8505C52.0654 37.8505 52.7299 37.2212 52.7313 36.449C52.7328 35.6795 52.0738 35.0299 51.2879 35.0286C50.447 35.0259 49.7796 35.6472 49.7782 36.4315Z" fill="black"/>
<path d="M14.6724 15.1012C15.1789 15.2144 15.6854 15.3263 16.1906 15.4408C16.374 15.4826 16.556 15.5338 16.7394 15.581C16.6929 15.5985 16.6378 15.6052 16.6026 15.6335C16.041 16.081 15.4555 16.5028 14.9292 16.9866C14.3549 17.5148 13.8188 18.0862 13.2981 18.6644C12.5207 19.5268 11.8801 20.4837 11.3157 21.4849C10.7316 22.5199 10.2491 23.598 9.90762 24.7287C9.72137 25.3472 9.545 25.9712 9.42789 26.6046C9.29668 27.3161 9.20779 28.0371 9.15417 28.7567C9.10055 29.4616 9.07798 30.1718 9.1062 30.8779C9.13159 31.5126 9.22754 32.1474 9.32066 32.7781C9.47022 33.7901 9.73971 34.7766 10.0854 35.7442C10.441 36.7387 10.8769 37.7023 11.423 38.6146C11.7489 39.1604 12.0861 39.7049 12.4727 40.2116C12.9595 40.849 13.49 41.4554 14.0234 42.0578C14.5962 42.7047 15.2622 43.2613 15.9422 43.8017C16.1708 43.9836 16.4022 44.1601 16.6322 44.3394C16.2188 44.4472 15.8068 44.5577 15.392 44.6601C15.1436 44.7221 14.8925 44.7706 14.6428 44.8259C14.6202 44.7962 14.6004 44.7639 14.5736 44.7396C13.9528 44.1601 13.2967 43.6116 12.7154 42.9985C10.3337 40.4905 8.75769 37.5743 7.9591 34.2739C7.90971 34.0677 7.84904 33.8629 7.79402 33.6567C7.78414 33.5273 7.78132 33.3966 7.76156 33.2686C7.71924 32.9937 7.66985 32.7201 7.61906 32.4466C7.612 32.4075 7.57814 32.3738 7.55698 32.3374C7.56685 32.2862 7.59084 32.235 7.5852 32.1851C7.40318 30.6879 7.41165 29.192 7.59084 27.6948C7.59648 27.6476 7.59507 27.5978 7.59648 27.5506C7.67409 27.1046 7.75169 26.6585 7.8307 26.2124C7.85328 26.1181 7.87585 26.0238 7.89701 25.9294C8.43176 23.5347 9.39685 21.3125 10.8064 19.2668C11.8858 17.6995 13.1824 16.3154 14.6752 15.0985L14.6724 15.1012Z" fill="#75679C"/>
<path d="M34.7544 11.6096C34.8165 11.6541 34.8715 11.7133 34.9406 11.7403C35.2651 11.867 35.5939 11.9856 35.9212 12.1055C35.972 12.1244 36.0242 12.1379 36.0764 12.154H36.0694C36.0807 12.1662 36.0906 12.1783 36.1018 12.1904C37.1586 12.6486 38.1759 13.1755 39.1382 13.7968C39.4274 13.9828 39.7125 14.1741 39.9989 14.3641C40.2063 14.5272 40.4123 14.6916 40.6239 14.8506C40.7862 14.9719 40.9541 15.0865 41.1192 15.2037C41.1544 15.2428 41.1841 15.2886 41.2236 15.3223C42.1873 16.1309 43.0691 17.0163 43.8592 17.9825C45.6074 20.1185 46.8321 22.5025 47.539 25.1263C47.6674 25.6047 47.7506 26.0939 47.855 26.5777C47.6575 26.7866 47.4642 27.0022 47.2596 27.2043C46.9915 27.4685 46.7136 27.7232 46.4399 27.9806C46.382 27.6153 46.3284 27.2488 46.2635 26.8836C45.9883 25.3109 45.4846 23.8043 44.7763 22.3623C44.1598 21.1063 43.3993 19.9352 42.492 18.8477C41.6962 17.8922 40.8186 17.0163 39.8366 16.2387C38.5795 15.2428 37.2278 14.383 35.7223 13.7604C35.1184 13.5111 34.5173 13.2523 33.8979 13.0435C32.6013 12.6055 31.2651 12.3198 29.8937 12.1864C28.9864 12.0988 28.0806 12.0462 27.1663 12.0866C26.3451 12.1217 25.531 12.1904 24.7197 12.3184C23.5627 12.5017 22.4326 12.782 21.3349 13.1769C21.0992 13.2618 20.8608 13.3386 20.6223 13.4194C20.6915 13.1607 20.7521 12.9006 20.8297 12.6432C20.9384 12.2834 21.0569 11.9276 21.1712 11.5692C21.1924 11.5638 21.2149 11.5584 21.2361 11.5516C22.8869 11.0153 24.5814 10.6878 26.3226 10.5652C28.3684 10.4223 30.3917 10.5625 32.3854 11.0099C33.1346 11.1783 33.8669 11.4182 34.6062 11.6217C34.65 11.6338 34.7022 11.6136 34.7516 11.6082L34.7544 11.6096Z" fill="#75679C"/>
<path d="M41.1531 44.7248C41.0459 44.7868 40.933 44.8393 40.8343 44.9121C40.6043 45.0819 40.3799 45.2584 40.1584 45.4363C40.1189 45.4687 40.0978 45.5199 40.0667 45.563C40.0117 45.5832 39.9468 45.5913 39.9002 45.6237C38.7602 46.4201 37.551 47.102 36.2656 47.6613C36.2092 47.6855 36.164 47.734 36.1132 47.7718C35.9129 47.8324 35.7125 47.8944 35.5108 47.9537C35.2765 48.0238 35.0409 48.0912 34.8067 48.1599C34.4511 48.1626 34.1845 47.9793 34.042 47.6303C33.3915 46.0333 32.7382 44.4364 32.092 42.8368C31.8621 42.2667 31.6504 41.6913 31.4275 41.1185C31.2709 40.7156 31.1114 40.314 30.9534 39.9124C30.9576 39.903 30.9605 39.8882 30.9675 39.8841C31.4359 39.6442 31.9044 39.4043 32.3728 39.1645C32.3883 39.1914 32.4081 39.2184 32.4194 39.2467C32.9189 40.4798 33.4183 41.7128 33.915 42.9473C34.0137 43.1925 34.0928 43.4459 34.1901 43.6912C34.4102 44.2383 34.636 44.7827 34.8603 45.3285C35.0014 45.6722 35.1411 46.0158 35.2921 46.3864C35.5009 46.2988 35.7012 46.2287 35.8875 46.1331C37.0304 45.5522 38.1746 44.9701 39.1835 44.183C39.7845 43.7141 40.3842 43.2397 40.9401 42.7236C41.448 42.2532 41.9094 41.7344 42.3651 41.2169C43.199 40.2709 43.8833 39.2278 44.4788 38.1322C45.046 37.0878 45.4918 35.9962 45.8318 34.8655C46.1253 33.8885 46.3313 32.8953 46.4357 31.8832C46.5557 31.987 46.6812 32.084 46.7941 32.1945C47.1412 32.5301 47.4827 32.8711 47.8255 33.2107C47.8481 33.2336 47.8664 33.2619 47.8862 33.2875C47.8185 33.6028 47.755 33.9209 47.6802 34.2349C47.0114 37.0527 45.7486 39.6038 43.8988 41.8907C43.1045 42.8731 42.2142 43.772 41.2392 44.5941C41.1997 44.6278 41.1785 44.6817 41.1489 44.7261L41.1531 44.7248Z" fill="#75679C"/>
<path d="M17.9205 14.7778C17.2714 14.6134 16.6238 14.4504 15.9748 14.2846C15.9324 14.2738 15.8943 14.2509 15.8534 14.2347C16.3134 13.9383 16.755 13.6108 17.2376 13.3507C18.0235 12.9262 18.8362 12.5462 19.6376 12.1486C19.6912 12.1217 19.7533 12.1095 19.8111 12.0907C19.7349 12.3629 19.6587 12.6351 19.5826 12.9087C19.4781 13.2847 19.3752 13.662 19.2707 14.0393C18.8206 14.286 18.3706 14.5326 17.9191 14.7805L17.9205 14.7778Z" fill="#75679C"/>
<path d="M19.2411 45.7948C19.3765 46.3029 19.512 46.8109 19.6474 47.319C19.6912 47.4847 19.7307 47.6505 19.7716 47.8163C19.3032 47.6074 18.8291 47.4106 18.3677 47.1896C17.5367 46.7894 16.7494 46.3177 15.9931 45.8002C15.9381 45.7625 15.8873 45.7207 15.8351 45.6803C16.0128 45.6318 16.1892 45.5832 16.367 45.5361C16.8848 45.3973 17.404 45.2598 17.9233 45.121C17.9317 45.1399 17.936 45.1668 17.9515 45.1749C18.3508 45.3946 18.7515 45.6129 19.1536 45.8285C19.1705 45.8379 19.2129 45.8069 19.2425 45.7948H19.2411Z" fill="#75679C"/>
<path d="M48.0879 31.921C47.7027 31.5531 47.3161 31.1852 46.9309 30.8187C46.7997 30.6933 46.6656 30.5707 46.533 30.4467C46.5429 30.1368 46.5542 29.8281 46.5598 29.5182C46.5598 29.4899 46.5217 29.4602 46.5006 29.4306C47.0268 28.9347 47.5517 28.4387 48.078 27.9415C48.2149 29.2675 48.2149 30.5936 48.0879 31.9197V31.921Z" fill="#75679C"/>
<path d="M36.1033 12.1915C36.092 12.179 36.0821 12.1665 36.0709 12.154C36.0821 12.1665 36.092 12.179 36.1033 12.1915Z" fill="black"/>
<path d="M21.8147 42.7249C21.167 42.9554 20.5194 43.1872 19.8252 43.4338C18.1363 34.437 18.142 25.4793 19.8407 16.4893C24.3487 17.9717 28.6013 19.8961 32.6945 22.1534C36.7862 24.4107 40.6621 26.959 44.253 29.9319C40.466 33.08 36.3601 35.759 32.0102 38.1053C31.9791 38.0648 31.9368 38.0298 31.9171 37.984C31.838 37.7994 31.7661 37.6134 31.6913 37.4274C31.5587 37.0972 31.4275 36.7657 31.2991 36.4436C31.3146 36.4234 31.3202 36.4113 31.3287 36.4059C31.426 36.352 31.5234 36.2994 31.6222 36.2455C32.8821 35.5556 33.85 34.5933 34.5287 33.371C35.2031 32.1568 35.5009 30.8618 35.4007 29.4831C35.3555 28.8673 35.2342 28.2703 35.0381 27.6854C34.8165 27.0251 34.4892 26.4132 34.0786 25.8419C33.6116 25.1936 33.0529 24.633 32.3925 24.16C31.7477 23.6978 31.0451 23.3434 30.2846 23.09C29.6102 22.8663 28.916 22.7396 28.2063 22.7059C27.3512 22.6655 26.5117 22.7598 25.6863 22.9889C24.5632 23.3016 23.5713 23.8379 22.7078 24.5859C22.0983 25.1141 21.5917 25.7206 21.1882 26.4092C20.6196 27.3795 20.3007 28.4172 20.2302 29.5222C20.1921 30.1233 20.2302 30.723 20.3515 31.32C20.6168 32.6433 21.2235 33.8023 22.1533 34.8049C22.7374 35.4343 23.4189 35.9531 24.2034 36.3426C24.3163 36.3992 24.3374 36.4598 24.2909 36.5757C23.9748 37.3519 23.6658 38.1309 23.3526 38.9071C22.9491 39.9111 22.5413 40.9137 22.1378 41.919C22.0362 42.1737 21.9473 42.4338 21.8528 42.6912C21.8415 42.702 21.8288 42.7115 21.8175 42.7222L21.8147 42.7249Z" fill="#4E3E7F"/>
<path d="M16.6323 44.3407C16.4023 44.1615 16.1695 43.9836 15.9423 43.803C15.2622 43.2613 14.5963 42.7047 14.0234 42.0592C13.4901 41.4568 12.9596 40.849 12.4728 40.2129C12.0862 39.7062 11.749 39.1618 11.423 38.616C10.8784 37.7023 10.4424 36.7401 10.0855 35.7455C9.73978 34.7793 9.47028 33.7915 9.32072 32.7794C9.2276 32.1487 9.13166 31.5153 9.10626 30.8793C9.07804 30.1731 9.10062 29.4629 9.15423 28.7581C9.20926 28.0371 9.29674 27.3161 9.42796 26.6059C9.54507 25.9739 9.72002 25.3486 9.90768 24.73C10.2491 23.5994 10.7317 22.5213 11.3158 21.4863C11.8802 20.485 12.5208 19.5295 13.2982 18.6657C13.8188 18.0876 14.355 17.5162 14.9292 16.9879C15.4541 16.5041 16.0411 16.0823 16.6026 15.6349C16.6393 15.6066 16.6929 15.5999 16.7395 15.5823C17.3659 15.7575 17.9924 15.9341 18.6203 16.1039C18.7487 16.1389 18.784 16.1901 18.7614 16.3195C18.5328 17.6402 18.2901 18.9581 18.0954 20.2829C17.9473 21.2882 17.8499 22.3016 17.7525 23.3137C17.6749 24.1276 17.6086 24.943 17.5776 25.7596C17.5183 27.3363 17.4718 28.9131 17.4534 30.4898C17.4421 31.4587 17.4831 32.4277 17.524 33.3966C17.5635 34.3211 17.6185 35.2442 17.6933 36.166C17.761 36.9907 17.8527 37.8155 17.9529 38.6376C18.0531 39.4596 18.1617 40.2803 18.2929 41.0983C18.4326 41.9635 18.6019 42.8246 18.7586 43.6871C18.7614 43.7033 18.7586 43.7195 18.7586 43.7572C18.4383 43.8529 18.1137 43.9539 17.7864 44.0469C17.4407 44.1453 17.0936 44.2369 16.7465 44.3299C16.7099 44.3394 16.6689 44.3367 16.6294 44.3407H16.6323Z" fill="#4E3E7F"/>
<path d="M20.6252 13.418C20.8622 13.3372 21.1021 13.2604 21.3377 13.1755C22.4354 12.7806 23.5656 12.5003 24.7226 12.317C25.5325 12.189 26.348 12.1203 27.1692 12.0852C28.0835 12.0461 28.9893 12.0974 29.8965 12.1849C31.268 12.3184 32.6041 12.6041 33.9008 13.042C34.5202 13.2509 35.1213 13.5097 35.7251 13.759C37.2306 14.3816 38.5823 15.2414 39.8395 16.2373C40.8215 17.0148 41.6991 17.8908 42.4949 18.8463C43.4007 19.9338 44.1612 21.1049 44.7792 22.3609C45.4875 23.8028 45.9912 25.3095 46.2663 26.8822C46.3298 27.2474 46.3834 27.6139 46.4427 27.9791C46.0039 28.3875 45.5651 28.7972 45.1136 29.2163C44.8751 29.0222 44.6564 28.8457 44.4392 28.6691C42.5697 27.1477 40.6155 25.734 38.5809 24.4214C36.9047 23.3393 35.2116 22.2787 33.4465 21.3299C32.1498 20.6319 30.8503 19.9378 29.5226 19.2937C28.1427 18.6239 26.7374 17.9973 25.3265 17.3881C23.6926 16.6833 22.022 16.0634 20.3232 15.5163C20.1003 15.4449 20.0933 15.4449 20.1525 15.2104C20.2908 14.6511 20.4347 14.0918 20.5786 13.5339C20.5885 13.4935 20.6111 13.4558 20.628 13.4167L20.6252 13.418Z" fill="#4E3E7F"/>
<path d="M46.4399 31.8833C46.3355 32.8953 46.1295 33.8899 45.8361 34.8656C45.496 35.9962 45.0516 37.0878 44.483 38.1322C43.8875 39.2292 43.2032 40.2722 42.3693 41.2169C41.9122 41.7344 41.4508 42.2533 40.9443 42.7236C40.3884 43.2397 39.7887 43.7141 39.1877 44.1831C38.1802 44.9701 37.036 45.5522 35.8917 46.1331C35.7054 46.2274 35.5051 46.2975 35.2963 46.3864C35.1453 46.0172 35.0042 45.6735 34.8645 45.3285C34.6416 44.7828 34.4144 44.2383 34.1943 43.6912C34.0955 43.4459 34.018 43.1926 33.9192 42.9473C33.4225 41.7129 32.9231 40.4798 32.4236 39.2467C32.4123 39.2184 32.3925 39.1914 32.377 39.1645C32.5534 39.0607 32.7298 38.957 32.9061 38.8532C34.2959 38.0419 35.6984 37.2495 37.0726 36.4167C39.1397 35.1647 41.1108 33.7821 43.017 32.3159C43.7182 31.7755 44.4068 31.2189 45.1179 30.6569C45.5031 31.0073 45.8953 31.3617 46.2847 31.7189C46.3412 31.7701 46.3891 31.828 46.4413 31.8833H46.4399Z" fill="#4E3E7F"/>
<path d="M30.5286 38.8775C30.1956 38.0487 29.8612 37.2212 29.5311 36.3924C29.3152 35.8534 29.4944 35.4747 30.0503 35.2523C31.6461 34.6163 32.7706 33.5314 33.3957 31.9911C34.516 29.2257 33.184 26.0683 30.3748 24.8069C27.2185 23.3892 23.495 24.8163 22.2393 27.9226C21.0781 30.7957 22.5427 34.0516 25.5254 35.2294C25.6397 35.2739 25.7568 35.3197 25.857 35.3871C26.1758 35.6014 26.2746 35.9531 26.1251 36.3372C25.9078 36.891 25.6848 37.4422 25.4619 37.9948C24.9596 39.244 24.4559 40.4946 23.9564 41.7452C23.9353 41.7964 23.9494 41.8611 23.948 41.919C23.3032 42.1657 22.6598 42.4136 22.015 42.6589C21.9642 42.6778 21.9063 42.6831 21.8527 42.6939C21.9472 42.4365 22.0347 42.1764 22.1377 41.9217C22.5398 40.9164 22.9476 39.9138 23.3525 38.9098C23.6658 38.1322 23.9734 37.3533 24.2908 36.5784C24.3374 36.4625 24.3162 36.4019 24.2033 36.3453C23.4189 35.9558 22.7374 35.437 22.1532 34.8076C21.2234 33.8036 20.6167 32.6447 20.3515 31.3227C20.2315 30.7257 20.192 30.126 20.2301 29.5249C20.3007 28.4199 20.6195 27.3822 21.1881 26.4119C21.5917 25.7233 22.0996 25.1168 22.7077 24.5886C23.5712 23.8406 24.5631 23.3043 25.6862 22.9916C26.5102 22.7625 27.3512 22.6682 28.2062 22.7086C28.9159 22.7423 29.6115 22.869 30.2845 23.0927C31.045 23.346 31.7477 23.7005 32.3925 24.1627C33.0514 24.6344 33.6115 25.1963 34.0786 25.8445C34.4906 26.4159 34.8165 27.0278 35.038 27.6881C35.2341 28.273 35.3555 28.87 35.4006 29.4858C35.5008 30.8645 35.2031 32.1595 34.5287 33.3737C33.85 34.5947 32.8821 35.5582 31.6221 36.2482C31.5248 36.3021 31.426 36.3547 31.3286 36.4086C31.3202 36.414 31.3145 36.4248 31.299 36.4463C31.4274 36.7698 31.56 37.0999 31.6912 37.4301C31.766 37.6161 31.838 37.802 31.917 37.9867C31.9368 38.0311 31.9791 38.0675 32.0101 38.108C31.5163 38.3654 31.0225 38.6214 30.5286 38.8788V38.8775Z" fill="#75679C"/>
<path d="M23.3032 43.3381C23.0873 43.8852 22.8714 44.4337 22.6527 44.9808C22.3056 45.8501 21.9543 46.7166 21.6086 47.5871C21.507 47.8418 21.349 48.0373 21.0739 48.1316C20.8848 47.4915 20.6943 46.8513 20.5067 46.2099C20.494 46.1641 20.4968 46.1142 20.4926 46.067C20.6619 45.6304 20.8354 45.1938 21.0019 44.7558C21.0866 44.5334 21.1599 44.307 21.2376 44.082C21.9261 43.834 22.6146 43.586 23.3046 43.3381H23.3032Z" fill="#75679C"/>
<path d="M21.2375 44.082C21.1585 44.307 21.0851 44.5334 21.0019 44.7558C20.8354 45.1938 20.6633 45.6304 20.4925 46.067C20.4657 46.001 20.4304 45.9363 20.4121 45.8676C20.3063 45.4458 20.2075 45.0213 20.1003 44.5995C20.0777 44.5119 20.0834 44.4633 20.1864 44.431C20.5377 44.3192 20.8876 44.1992 21.2375 44.082Z" fill="#4E3E7F"/>
<path d="M17.9204 14.7778C18.3705 14.5312 18.8206 14.2846 19.2721 14.0366C19.1917 14.387 19.1113 14.7374 19.0266 15.1053C18.6485 14.9934 18.2845 14.8843 17.9219 14.7765L17.9204 14.7778Z" fill="#4E3E7F"/>
<path d="M19.2411 45.7948C19.2114 45.8069 19.1691 45.8379 19.1522 45.8285C18.7501 45.6142 18.3493 45.3946 17.95 45.1749C17.9345 45.1668 17.9317 45.1385 17.9218 45.121C18.2746 45.0199 18.6273 44.9188 18.997 44.8124C19.0802 45.1466 19.1592 45.47 19.2397 45.7948H19.2411Z" fill="#4E3E7F"/>
<path d="M46.5009 29.4319C46.522 29.4615 46.5602 29.4898 46.5602 29.5194C46.5545 29.8294 46.5432 30.138 46.5333 30.448C46.3385 30.2795 46.1423 30.1111 45.9376 29.9345C46.1324 29.7607 46.3173 29.5963 46.5009 29.4332V29.4319Z" fill="#4E3E7F"/>
<path d="M21.8147 42.7259C21.8259 42.7148 21.8386 42.7051 21.8499 42.6939C21.8386 42.7051 21.8259 42.7148 21.8147 42.7259Z" fill="#75679C"/>
</svg>
